<?xml version="1.0" standalone="no"?>
<!DOCTYPE svg PUBLIC "-//W3C//DTD SVG 20010904//EN"
 "http://www.w3.org/TR/2001/REC-SVG-20010904/DTD/svg10.dtd">
<svg version="1.0" xmlns="http://www.w3.org/2000/svg"
 width="116.000000pt" height="116.000000pt" viewBox="0 0 116.000000 116.000000"
 preserveAspectRatio="xMidYMid meet">
<metadata>
Created by potrace 1.14, written by Peter Selinger 2001-2017
</metadata>
<g transform="translate(0.000000,116.000000) scale(0.100000,-0.100000)"
fill="#000000" stroke="none">
<path d="M538 943 c-62 -84 -116 -208 -123 -281 -4 -46 -9 -48 -47 -18 -66 50
-224 105 -301 106 -28 0 -28 0 -21 -47 10 -69 11 -73 29 -128 44 -128 112
-221 205 -281 25 -16 47 -31 50 -34 3 -3 10 -6 15 -7 6 -1 30 -10 55 -19 25
-9 54 -18 65 -20 11 -1 34 -6 50 -9 41 -8 124 -11 120 -5 -2 3 26 11 62 18 36
7 75 19 86 27 12 8 27 15 35 15 7 0 29 11 49 25 20 13 41 21 46 18 6 -3 7 -1
4 4 -4 6 7 21 24 34 40 30 111 140 136 209 24 66 48 188 39 197 -11 11 -143
-16 -209 -42 -34 -14 -86 -41 -114 -60 -29 -19 -54 -35 -55 -35 -2 0 -4 20 -5
43 -5 81 -71 232 -136 310 l-24 29 -35 -49z"/>
</g>
</svg>
