<svg width="84" height="84" viewBox="0 0 84 84" fill="none" xmlns="http://www.w3.org/2000/svg">
<path d="M28.6666 55.3333L55.3333 28.6666" stroke="#3D293A" stroke-width="2.75" stroke-linecap="round" stroke-linejoin="round"/>
<path d="M30.8888 33.1111C32.1161 33.1111 33.1111 32.1161 33.1111 30.8888C33.1111 29.6615 32.1161 28.6666 30.8888 28.6666C29.6615 28.6666 28.6666 29.6615 28.6666 30.8888C28.6666 32.1161 29.6615 33.1111 30.8888 33.1111Z" fill="black" stroke="#3D293A" stroke-width="2.75" stroke-linecap="round" stroke-linejoin="round"/>
<path d="M53.1112 55.3331C54.3385 55.3331 55.3334 54.3382 55.3334 53.1109C55.3334 51.8836 54.3385 50.8887 53.1112 50.8887C51.8839 50.8887 50.889 51.8836 50.889 53.1109C50.889 54.3382 51.8839 55.3331 53.1112 55.3331Z" fill="black" stroke="#3D293A" stroke-width="2.75" stroke-linecap="round" stroke-linejoin="round"/>
<path d="M42 82C64.0914 82 82 64.0914 82 42C82 19.9086 64.0914 2 42 2C19.9086 2 2 19.9086 2 42C2 64.0914 19.9086 82 42 82Z" stroke="#3D293A" stroke-width="2.75" stroke-linecap="round" stroke-linejoin="round"/>
</svg>
