<svg width="44" height="45" viewBox="0 0 44 45" fill="none" xmlns="http://www.w3.org/2000/svg">
<path d="M32 2.46045H12C6.47715 2.46045 2 6.9376 2 12.4604V32.4604C2 37.9833 6.47715 42.4604 12 42.4604H32C37.5228 42.4604 42 37.9833 42 32.4604V12.4604C42 6.9376 37.5228 2.46045 32 2.46045Z" stroke="#3D293A" stroke-width="3.75" stroke-linecap="round" stroke-linejoin="round"/>
<path d="M22 29.9604C26.1421 29.9604 29.5 26.6026 29.5 22.4604C29.5 18.3183 26.1421 14.9604 22 14.9604C17.8579 14.9604 14.5 18.3183 14.5 22.4604C14.5 26.6026 17.8579 29.9604 22 29.9604Z" stroke="#3D293A" stroke-width="3.75" stroke-linecap="round" stroke-linejoin="round"/>
<path d="M33.25 11.2104V11.2114" stroke="#3D293A" stroke-width="3.75" stroke-linecap="round" stroke-linejoin="round"/>
</svg>
