<svg width="94" height="90" viewBox="0 0 94 90" fill="none" xmlns="http://www.w3.org/2000/svg">
<g filter="url(#filter0_d)">
<path d="M57.264 32.2414C57.264 47.2864 45.8847 59.4828 45.8847 59.4828C45.8847 59.4828 34.5054 47.2864 34.5054 32.2414C34.5054 17.1964 45.8847 5 45.8847 5C45.8847 5 57.264 17.1964 57.264 32.2414Z" fill="#F69BE8"/>
<path d="M56.5266 32.5384C67.165 21.9 83.8355 21.3223 83.8355 21.3223C83.8355 21.3223 83.2578 37.9928 72.6194 48.6312C61.9809 59.2696 45.5399 59.4828 45.5399 59.4828C45.5399 59.4828 45.8882 43.1768 56.5266 32.5384Z" fill="#F69BE8"/>
<path d="M36.0676 32.5384C46.706 43.1769 45.8847 59.4828 45.8847 59.4828C45.8847 59.4828 30.6133 59.2696 19.9748 48.6312C9.33642 37.9928 8.75867 21.3223 8.75867 21.3223C8.75867 21.3223 25.4292 21.9 36.0676 32.5384Z" fill="#F69BE8"/>
<path d="M9.83603 22.3996C10.2556 22.4371 10.7838 22.4918 11.4032 22.5707C13.0971 22.7866 15.4679 23.1836 18.1647 23.9068C22.9455 25.1889 28.6892 27.4797 33.5131 31.5496C33.508 31.7795 33.5054 32.0101 33.5054 32.2414C33.5054 40.007 36.4379 46.994 39.3289 52.0038C40.7782 54.5152 42.2273 56.5475 43.3158 57.954C43.4104 58.0762 43.5022 58.1937 43.5911 58.3064C43.5441 58.301 43.4964 58.2956 43.4481 58.29C41.8891 58.1083 39.6968 57.7572 37.1787 57.0806C32.1335 55.7251 25.8361 53.0782 20.682 47.9241C15.5347 42.7768 12.7935 36.1365 11.3432 30.7283C10.62 28.0315 10.223 25.6607 10.0071 23.9668C9.92819 23.3474 9.87355 22.8192 9.83603 22.3996ZM44.8149 56.2615C44.8015 56.3676 44.7888 56.4715 44.7767 56.5731C43.7462 55.2299 42.4036 53.3304 41.0612 51.0041C38.4138 46.4165 35.8035 40.2325 35.5291 33.4156C40.5442 38.5203 42.8963 44.9622 43.9865 50.2036C44.4769 52.5613 44.7087 54.6608 44.8149 56.2615ZM36.7747 31.8313C36.3735 31.4301 35.9641 31.0429 35.5478 30.6692C35.9053 24.0098 38.4654 17.9768 41.0612 13.4786C42.4567 11.0604 43.8524 9.10322 44.8975 7.75279C45.2797 7.25897 45.6145 6.84687 45.8847 6.52363C46.1549 6.84687 46.4897 7.25897 46.8719 7.75279C47.917 9.10322 49.3127 11.0604 50.7082 13.4786C53.3996 18.1424 56.0526 24.4561 56.252 31.4072C56.1068 31.5468 55.9626 31.6882 55.8195 31.8313C50.3282 37.3226 47.518 44.2462 46.0765 49.7465C46.0496 49.8491 46.0232 49.9513 45.9972 50.0529C45.98 49.9677 45.9625 49.8822 45.9446 49.7964C44.798 44.2837 42.2821 37.3387 36.7747 31.8313ZM82.7582 22.3996C82.7206 22.8192 82.666 23.3474 82.5871 23.9668C82.3712 25.6607 81.9742 28.0315 81.251 30.7283C79.8007 36.1365 77.0595 42.7768 71.9123 47.9241C66.768 53.0683 60.1894 55.7182 54.8438 57.0772C52.1925 57.7513 49.8633 58.103 48.1942 58.2861C48.2781 58.1796 48.3647 58.0689 48.4535 57.954C49.5421 56.5475 50.9912 54.5152 52.4405 52.0038C55.3286 46.999 58.2582 40.0208 58.264 32.2644C63.2459 27.7446 69.3757 25.2621 74.4295 23.9068C77.1263 23.1836 79.4971 22.7866 81.191 22.5707C81.8104 22.4918 82.3385 22.4371 82.7582 22.3996ZM48.0112 50.2535C49.3059 45.3133 51.7171 39.3038 56.1882 34.3466C55.7271 40.7946 53.2346 46.6262 50.7082 51.0041C49.3127 53.4224 47.917 55.3795 46.8719 56.73C46.8638 56.7404 46.8558 56.7508 46.8478 56.7611C46.847 56.7462 46.8462 56.7312 46.8454 56.7162C46.8387 56.5894 46.8313 56.459 46.823 56.3251C47.0317 54.7211 47.3917 52.6169 48.0112 50.2535Z" stroke="#F782E5" stroke-width="2"/>
</g>
<g filter="url(#filter1_d)">
<path d="M18.5186 68.7034V68.4552C18.5186 67.7434 18.32 67.1807 17.9227 66.7669C17.5255 66.3366 16.9627 66.1131 16.2344 66.0966H12.6593V72.1297H15.5144C16.2924 72.1131 16.8469 71.7903 17.1779 71.1614C17.3269 70.8634 17.4013 70.5324 17.4013 70.1683V69.9945H17.6744V75.2579H17.4013V75.0841C17.4013 74.3062 17.1117 73.7434 16.5324 73.3959C16.251 73.2138 15.92 73.1228 15.5393 73.1228H12.6593V78.4359C12.6758 78.8166 12.8082 79.131 13.0565 79.3793C13.3213 79.6276 13.6441 79.7517 14.0248 79.7517H14.3227V80H7.42065V79.7517H7.71858C8.09927 79.7517 8.41375 79.6276 8.66203 79.3793C8.92685 79.131 9.06754 78.8248 9.08409 78.4607V66.6428C9.08409 66.2786 8.95168 65.9724 8.68685 65.7241C8.42202 65.4759 8.09927 65.3517 7.71858 65.3517H7.42065V65.1034H16.1848C17.2937 65.1034 18.1627 64.9793 18.7917 64.731V68.7034H18.5186ZM20.683 80V79.7517H20.981C21.3617 79.7517 21.6761 79.6276 21.9244 79.3793C22.1892 79.131 22.3217 78.8248 22.3217 78.4607V66.6676C22.3217 66.3034 22.1892 65.9972 21.9244 65.749C21.6596 65.4841 21.3451 65.3517 20.981 65.3517H20.683V65.1034H27.5851V65.3517H27.2872C26.9065 65.3517 26.5837 65.4759 26.3189 65.7241C26.0541 65.9724 25.9217 66.2869 25.9217 66.6676V79.0069H28.901C29.9272 78.9903 30.7961 78.6759 31.5079 78.0634C32.2196 77.4345 32.741 76.5572 33.072 75.4317H33.3451L32.3768 80H20.683ZM34.5522 72.5517C34.5522 70.1683 35.3466 68.2814 36.9356 66.891C38.5411 65.4841 40.668 64.7807 43.3163 64.7807C45.9811 64.7807 48.1163 65.4841 49.7218 66.891C51.3273 68.2814 52.1301 70.1683 52.1301 72.5517C52.1301 74.9352 51.3273 76.8303 49.7218 78.2372C48.1163 79.6276 45.9894 80.3228 43.3411 80.3228C40.6928 80.3228 38.5659 79.6276 36.9604 78.2372C35.3549 76.8303 34.5522 74.9352 34.5522 72.5517ZM38.3508 72.5517C38.3508 74.6372 38.7977 76.2924 39.6915 77.5172C40.6018 78.7255 41.8101 79.3297 43.3163 79.3297C44.8391 79.3297 46.0473 78.7255 46.9411 77.5172C47.8515 76.2924 48.3066 74.6372 48.3066 72.5517C48.3066 70.4662 47.8515 68.8193 46.9411 67.611C46.0473 66.3862 44.8391 65.7738 43.3163 65.7738C41.8101 65.7738 40.6018 66.3862 39.6915 67.611C38.7977 68.8193 38.3508 70.4662 38.3508 72.5517ZM59.718 66.1214H58.9235V78.4359C58.9235 78.8331 59.0559 79.1559 59.3208 79.4041C59.6022 79.6359 59.9166 79.7517 60.2642 79.7517H60.5373V80H53.7097V79.7517H54.0077C54.3718 79.7517 54.678 79.6276 54.9263 79.3793C55.1911 79.131 55.3235 78.8248 55.3235 78.4607V66.6428C55.3235 66.2786 55.1911 65.9724 54.9263 65.7241C54.678 65.4759 54.3801 65.3517 54.0325 65.3517H53.7097V65.1034H61.3318C62.8215 65.1034 64.0711 65.3931 65.0808 65.9724C66.2063 66.6179 66.7691 67.6855 66.7691 69.1752C66.7691 70.1352 66.4794 71.0041 65.9001 71.7821C65.3208 72.5434 64.4601 73.0069 63.318 73.1724C63.7649 73.3214 64.2035 73.6028 64.6339 74.0166C65.0808 74.4303 65.4366 74.8524 65.7015 75.2828C66.2311 76.2262 66.7856 77.0952 67.3649 77.8897C67.9442 78.6676 68.4077 79.1724 68.7553 79.4041C69.1194 79.6359 69.558 79.7517 70.0711 79.7517V80H67.9856C66.6118 80 65.5525 79.8345 64.8077 79.5034C64.0794 79.1724 63.4256 78.5434 62.8463 77.6166C61.9525 76.1931 61.398 75.0676 61.1828 74.24C60.9842 73.7434 60.7442 73.371 60.4628 73.1228C60.198 72.8745 59.9415 72.7338 59.6932 72.7007V72.5021H60.3139C61.7208 72.4855 62.5815 71.6579 62.8959 70.0193C62.9622 69.771 62.9953 69.5559 62.9953 69.3738C62.9953 69.1917 62.987 68.9434 62.9704 68.629C62.9539 68.2979 62.8463 67.9338 62.6477 67.5366C62.4656 67.1228 62.2256 66.8248 61.9277 66.6428C61.4146 66.3283 60.8849 66.1628 60.3387 66.1462C60.1566 66.1297 59.9497 66.1214 59.718 66.1214ZM85.9808 79.7517H86.1794V80H78.8801V79.7517H79.0787C79.4097 79.7517 79.6497 79.6524 79.7987 79.4538C79.9477 79.2552 80.0221 79.0731 80.0221 78.9076C80.0221 78.7421 79.989 78.5683 79.9228 78.3862L78.9545 76.1021H73.6911L72.698 78.411C72.6318 78.5766 72.5987 78.7503 72.5987 78.9324C72.5987 79.0979 72.6732 79.28 72.8221 79.4786C72.9877 79.6607 73.2359 79.7517 73.567 79.7517H73.7656V80H68.8001V79.7517H68.9987C69.3463 79.7517 69.6939 79.6441 70.0414 79.429C70.389 79.2138 70.6704 78.891 70.8856 78.4607L76.0249 67.4372C76.7532 65.7986 77.1339 64.789 77.167 64.4083H77.3904L84.0442 78.3614C84.2594 78.8414 84.5408 79.1972 84.8883 79.429C85.2525 79.6441 85.6166 79.7517 85.9808 79.7517ZM74.1132 75.1338H78.5325L76.3477 69.9448L74.1132 75.1338Z" fill="#F782E5"/>
</g>
<defs>
<filter id="filter0_d" x="1.86211" y="0.862069" width="88.87" height="68.2759" filterUnits="userSpaceOnUse" color-interpolation-filters="sRGB">
<feFlood flood-opacity="0" result="BackgroundImageFix"/>
<feColorMatrix in="SourceAlpha" type="matrix" values="0 0 0 0 0 0 0 0 0 0 0 0 0 0 0 0 0 0 127 0" result="hardAlpha"/>
<feOffset dy="2.75862"/>
<feGaussianBlur stdDeviation="3.44828"/>
<feColorMatrix type="matrix" values="0 0 0 0 0.968627 0 0 0 0 0.509804 0 0 0 0 0.898039 0 0 0 0.15 0"/>
<feBlend mode="normal" in2="BackgroundImageFix" result="effect1_dropShadow"/>
<feBlend mode="normal" in="SourceGraphic" in2="effect1_dropShadow" result="shape"/>
</filter>
<filter id="filter1_d" x="0.524102" y="60.2703" width="92.5518" height="29.7076" filterUnits="userSpaceOnUse" color-interpolation-filters="sRGB">
<feFlood flood-opacity="0" result="BackgroundImageFix"/>
<feColorMatrix in="SourceAlpha" type="matrix" values="0 0 0 0 0 0 0 0 0 0 0 0 0 0 0 0 0 0 127 0" result="hardAlpha"/>
<feOffset dy="2.75862"/>
<feGaussianBlur stdDeviation="3.44828"/>
<feColorMatrix type="matrix" values="0 0 0 0 0.968627 0 0 0 0 0.509804 0 0 0 0 0.898039 0 0 0 0.15 0"/>
<feBlend mode="normal" in2="BackgroundImageFix" result="effect1_dropShadow"/>
<feBlend mode="normal" in="SourceGraphic" in2="effect1_dropShadow" result="shape"/>
</filter>
</defs>
</svg>
