<svg width="84" height="84" viewBox="0 0 84 84" fill="none" xmlns="http://www.w3.org/2000/svg">
<path d="M19.778 55.3333H64.2224V73.111C64.2224 75.4685 63.2859 77.7294 61.6189 79.3964C59.9519 81.0634 57.691 81.9999 55.3335 81.9999H28.6668C26.3094 81.9999 24.0484 81.0634 22.3814 79.3964C20.7145 77.7294 19.778 75.4685 19.778 73.111V55.3333Z" stroke="#3D293A" stroke-width="2.75" stroke-linecap="round" stroke-linejoin="round"/>
<path d="M42 28.6667C42 21.5942 39.1905 14.8115 34.1895 9.81049C29.1885 4.80952 22.4058 2 15.3333 2H2V10.8889C2 17.9613 4.80952 24.7441 9.81049 29.7451C14.8115 34.746 21.5942 37.5556 28.6667 37.5556H42" stroke="#3D293A" stroke-width="2.75" stroke-linecap="round" stroke-linejoin="round"/>
<path d="M42 37.5555C42 30.483 44.8095 23.7003 49.8105 18.6993C54.8115 13.6983 61.5942 10.8888 68.6667 10.8888H82V15.3332C82 22.4057 79.1905 29.1884 74.1895 34.1894C69.1885 39.1904 62.4058 41.9999 55.3333 41.9999H42" stroke="#3D293A" stroke-width="2.75" stroke-linecap="round" stroke-linejoin="round"/>
<path d="M42 55.3333V28.6666" stroke="#3D293A" stroke-width="2.75" stroke-linecap="round" stroke-linejoin="round"/>
</svg>
