<svg width="36" height="36" viewBox="0 0 36 36" fill="none" xmlns="http://www.w3.org/2000/svg">
<path d="M1.5 34.5H34.5" stroke="#21121f" stroke-width="2.75" stroke-linecap="round" stroke-linejoin="round"/>
<path d="M23.5 10.6667C23.5 12.1254 24.0795 13.5243 25.1109 14.5558C26.1424 15.5872 27.5413 16.1667 29 16.1667C30.4587 16.1667 31.8576 15.5872 32.8891 14.5558C33.9205 13.5243 34.5 12.1254 34.5 10.6667V8.83333H1.5L5.16667 1.5H30.8333L34.5 8.83333M1.5 8.83333V10.6667C1.5 12.1254 2.07946 13.5243 3.11091 14.5558C4.14236 15.5872 5.54131 16.1667 7 16.1667C8.45869 16.1667 9.85764 15.5872 10.8891 14.5558C11.9205 13.5243 12.5 12.1254 12.5 10.6667V8.83333H1.5ZM12.5 10.6667C12.5 12.1254 13.0795 13.5243 14.1109 14.5558C15.1424 15.5872 16.5413 16.1667 18 16.1667C19.4587 16.1667 20.8576 15.5872 21.8891 14.5558C22.9205 13.5243 23.5 12.1254 23.5 10.6667V8.83333L12.5 10.6667Z" stroke="#3D293A" stroke-width="2.75" stroke-linecap="round" stroke-linejoin="round"/>
<path d="M5.16669 34.5V15.8917" stroke="#3D293A" stroke-width="2.75" stroke-linecap="round" stroke-linejoin="round"/>
<path d="M30.8333 34.5V15.8917" stroke="#3D293A" stroke-width="2.75" stroke-linecap="round" stroke-linejoin="round"/>
<path d="M12.5 34.5V27.1667C12.5 26.1942 12.8863 25.2616 13.5739 24.5739C14.2616 23.8863 15.1942 23.5 16.1667 23.5H19.8333C20.8058 23.5 21.7384 23.8863 22.4261 24.5739C23.1137 25.2616 23.5 26.1942 23.5 27.1667V34.5" stroke="#3D293A" stroke-width="2.75" stroke-linecap="round" stroke-linejoin="round"/>
</svg>
