<svg width="16" height="16" viewBox="0 0 16 16" fill="none" xmlns="http://www.w3.org/2000/svg">
<mask id="path-1-inside-1" fill="white">
<path d="M6.35402 12C6.35402 9.79086 8.01429 7.99999 8.01429 7.99999C8.01429 7.99999 9.67455 9.79086 9.67455 12C9.67455 14.2091 8.01429 16 8.01429 16C8.01429 16 6.35402 14.2091 6.35402 12Z"/>
<path d="M6.46162 11.9564C4.90945 13.5185 2.47719 13.6033 2.47719 13.6033C2.47719 13.6033 2.56148 11.1555 4.11365 9.59339C5.66581 8.03129 8.0646 7.99999 8.0646 7.99999C8.0646 7.99999 8.01378 10.3943 6.46162 11.9564Z"/>
<path d="M9.44662 11.9564C7.89445 10.3943 8.01429 7.99999 8.01429 7.99999C8.01429 7.99999 10.2424 8.03129 11.7946 9.59339C13.3468 11.1555 13.431 13.6033 13.431 13.6033C13.431 13.6033 10.9988 13.5185 9.44662 11.9564Z"/>
<path d="M4.08017 6.35304C2.528 4.79094 2.64784 2.39666 2.64784 2.39666C2.64784 2.39666 4.87597 2.42795 6.42814 3.99005C7.9803 5.55215 8.0646 7.99999 8.0646 7.99999C8.0646 7.99999 5.63234 7.91514 4.08017 6.35304Z"/>
<path d="M3.97457 6.32911C6.16967 6.32911 7.94914 8 7.94914 8C7.94914 8 6.16967 9.67089 3.97457 9.67089C1.77948 9.67089 0 8 0 8C0 8 1.77948 6.32911 3.97457 6.32911Z"/>
<path d="M12.0254 6.32911C14.2205 6.32911 16 8 16 8C16 8 14.2205 9.67089 12.0254 9.67089C9.83033 9.67089 8.05086 8 8.05086 8C8.05086 8 9.83033 6.32911 12.0254 6.32911Z"/>
<path d="M6.39059 4C6.39059 1.79086 8.05086 0 8.05086 0C8.05086 0 9.71112 1.79086 9.71112 4C9.71112 6.20914 8.05086 8 8.05086 8C8.05086 8 6.39059 6.20914 6.39059 4Z"/>
<path d="M8.05086 8C8.05086 8 6.27142 6.32911 4.07633 6.32911C1.88123 6.32911 0.101755 8 0.101755 8C0.101755 8 1.88123 9.67088 4.07633 9.67088C6.27142 9.67088 8.05086 8 8.05086 8Z"/>
<path d="M9.68734 3.99007C11.2395 2.42797 13.6186 2.54857 13.6186 2.54857C13.6186 2.54857 13.5875 4.79096 12.0353 6.35306C10.4831 7.91516 8.05086 8 8.05086 8C8.05086 8 8.13517 5.55217 9.68734 3.99007Z"/>
</mask>
<path d="M6.35402 12C6.35402 9.79086 8.01429 7.99999 8.01429 7.99999C8.01429 7.99999 9.67455 9.79086 9.67455 12C9.67455 14.2091 8.01429 16 8.01429 16C8.01429 16 6.35402 14.2091 6.35402 12Z" fill="#FAB7F0"/>
<path d="M6.46162 11.9564C4.90945 13.5185 2.47719 13.6033 2.47719 13.6033C2.47719 13.6033 2.56148 11.1555 4.11365 9.59339C5.66581 8.03129 8.0646 7.99999 8.0646 7.99999C8.0646 7.99999 8.01378 10.3943 6.46162 11.9564Z" fill="#FAB7F0"/>
<path d="M9.44662 11.9564C7.89445 10.3943 8.01429 7.99999 8.01429 7.99999C8.01429 7.99999 10.2424 8.03129 11.7946 9.59339C13.3468 11.1555 13.431 13.6033 13.431 13.6033C13.431 13.6033 10.9988 13.5185 9.44662 11.9564Z" fill="#FAB7F0"/>
<path d="M4.08017 6.35304C2.528 4.79094 2.64784 2.39666 2.64784 2.39666C2.64784 2.39666 4.87597 2.42795 6.42814 3.99005C7.9803 5.55215 8.0646 7.99999 8.0646 7.99999C8.0646 7.99999 5.63234 7.91514 4.08017 6.35304Z" fill="#FAB7F0"/>
<path d="M3.97457 6.32911C6.16967 6.32911 7.94914 8 7.94914 8C7.94914 8 6.16967 9.67089 3.97457 9.67089C1.77948 9.67089 0 8 0 8C0 8 1.77948 6.32911 3.97457 6.32911Z" fill="#FAB7F0"/>
<path d="M12.0254 6.32911C14.2205 6.32911 16 8 16 8C16 8 14.2205 9.67089 12.0254 9.67089C9.83033 9.67089 8.05086 8 8.05086 8C8.05086 8 9.83033 6.32911 12.0254 6.32911Z" fill="#FAB7F0"/>
<path d="M6.39059 4C6.39059 1.79086 8.05086 0 8.05086 0C8.05086 0 9.71112 1.79086 9.71112 4C9.71112 6.20914 8.05086 8 8.05086 8C8.05086 8 6.39059 6.20914 6.39059 4Z" fill="#FAB7F0"/>
<path d="M8.05086 8C8.05086 8 6.27142 6.32911 4.07633 6.32911C1.88123 6.32911 0.101755 8 0.101755 8C0.101755 8 1.88123 9.67088 4.07633 9.67088C6.27142 9.67088 8.05086 8 8.05086 8Z" fill="#FAB7F0"/>
<path d="M9.68734 3.99007C11.2395 2.42797 13.6186 2.54857 13.6186 2.54857C13.6186 2.54857 13.5875 4.79096 12.0353 6.35306C10.4831 7.91516 8.05086 8 8.05086 8C8.05086 8 8.13517 5.55217 9.68734 3.99007Z" fill="#FAB7F0"/>
<path d="M8.01429 7.99999L8.02272 7.40005L7.75578 7.3963L7.57429 7.59208L8.01429 7.99999ZM8.01429 16L7.57429 16.4079L8.01429 16.8825L8.45429 16.4079L8.01429 16ZM2.47719 13.6033L1.87754 13.5827L1.85541 14.2254L2.4981 14.2029L2.47719 13.6033ZM8.0646 7.99999L8.66447 8.01273L8.66482 7.99603L8.66425 7.97934L8.0646 7.99999ZM13.431 13.6033L13.4101 14.2029L14.0528 14.2254L14.0307 13.5827L13.431 13.6033ZM2.64784 2.39666L2.65627 1.79672L2.07752 1.78859L2.04859 2.36666L2.64784 2.39666ZM7.94914 8L8.35985 8.4374L8.82568 8L8.35985 7.5626L7.94914 8ZM0 8L-0.410708 7.5626L-0.876534 8L-0.410708 8.4374L0 8ZM16 8L16.4107 8.4374L16.8765 8L16.4107 7.5626L16 8ZM8.05086 0L8.49086 -0.407917L8.05086 -0.882532L7.61085 -0.407917L8.05086 0ZM0.101755 8L-0.308954 7.5626L-0.77478 8L-0.308954 8.4374L0.101755 8ZM13.6186 2.54857L14.2185 2.55689L14.2265 1.97862L13.6489 1.94934L13.6186 2.54857ZM6.95402 12C6.95402 11.0404 7.31713 10.1459 7.70466 9.47003C7.89619 9.13601 8.08782 8.86564 8.2305 8.68009C8.30167 8.58754 8.36015 8.51675 8.39966 8.47038C8.4194 8.44721 8.43436 8.43019 8.44374 8.41966C8.44843 8.41439 8.45172 8.41075 8.45351 8.40878C8.45441 8.40779 8.45493 8.40722 8.45507 8.40708C8.45513 8.407 8.4551 8.40704 8.45498 8.40718C8.45491 8.40724 8.45482 8.40734 8.45471 8.40746C8.45465 8.40752 8.45455 8.40764 8.45452 8.40767C8.45441 8.40779 8.45429 8.40791 8.01429 7.99999C7.57429 7.59208 7.57416 7.59222 7.57402 7.59236C7.57397 7.59242 7.57383 7.59257 7.57372 7.59269C7.5735 7.59292 7.57326 7.59318 7.573 7.59347C7.57247 7.59404 7.57184 7.59473 7.57111 7.59552C7.56964 7.59712 7.56779 7.59915 7.56554 7.60162C7.56105 7.60656 7.55502 7.61324 7.54755 7.62163C7.53261 7.63841 7.5119 7.66202 7.48624 7.69214C7.43495 7.75233 7.36373 7.83872 7.27924 7.94858C7.11063 8.16785 6.88719 8.48327 6.66366 8.87311C6.22105 9.645 5.75402 10.7505 5.75402 12H6.95402ZM8.01429 7.99999C7.57429 8.40791 7.57417 8.40779 7.57406 8.40767C7.57403 8.40764 7.57393 8.40752 7.57387 8.40746C7.57376 8.40734 7.57367 8.40724 7.5736 8.40718C7.57348 8.40704 7.57345 8.407 7.57351 8.40708C7.57365 8.40722 7.57417 8.40779 7.57507 8.40878C7.57686 8.41075 7.58015 8.41439 7.58484 8.41966C7.59422 8.43019 7.60918 8.44721 7.62892 8.47038C7.66843 8.51675 7.72691 8.58754 7.79807 8.68009C7.94076 8.86564 8.13239 9.13601 8.32392 9.47003C8.71144 10.1459 9.07455 11.0404 9.07455 12H10.2746C10.2746 10.7505 9.80753 9.645 9.36492 8.87311C9.14139 8.48327 8.91795 8.16785 8.74934 7.94858C8.66485 7.83872 8.59363 7.75233 8.54234 7.69214C8.51668 7.66203 8.49597 7.63841 8.48103 7.62163C8.47356 7.61324 8.46753 7.60656 8.46304 7.60162C8.46079 7.59915 8.45893 7.59712 8.45747 7.59552C8.45674 7.59473 8.45611 7.59404 8.45558 7.59347C8.45531 7.59318 8.45507 7.59292 8.45486 7.59269C8.45475 7.59257 8.45461 7.59242 8.45456 7.59236C8.45442 7.59222 8.45429 7.59208 8.01429 7.99999ZM9.07455 12C9.07455 12.9596 8.71144 13.8541 8.32392 14.53C8.13239 14.864 7.94076 15.1344 7.79807 15.3199C7.72691 15.4125 7.66843 15.4832 7.62892 15.5296C7.60918 15.5528 7.59422 15.5698 7.58484 15.5803C7.58015 15.5856 7.57686 15.5892 7.57507 15.5912C7.57417 15.5922 7.57365 15.5928 7.57351 15.5929C7.57345 15.593 7.57348 15.593 7.5736 15.5928C7.57367 15.5928 7.57376 15.5927 7.57387 15.5925C7.57393 15.5925 7.57403 15.5924 7.57406 15.5923C7.57417 15.5922 7.57429 15.5921 8.01429 16C8.45429 16.4079 8.45442 16.4078 8.45456 16.4076C8.45461 16.4076 8.45475 16.4074 8.45486 16.4073C8.45508 16.4071 8.45531 16.4068 8.45558 16.4065C8.45611 16.406 8.45674 16.4053 8.45747 16.4045C8.45893 16.4029 8.46079 16.4008 8.46304 16.3984C8.46753 16.3934 8.47356 16.3868 8.48103 16.3784C8.49597 16.3616 8.51668 16.338 8.54234 16.3079C8.59363 16.2477 8.66485 16.1613 8.74934 16.0514C8.91795 15.8321 9.14139 15.5167 9.36492 15.1269C9.80753 14.355 10.2746 13.2495 10.2746 12H9.07455ZM8.01429 16C8.45429 15.5921 8.45441 15.5922 8.45452 15.5923C8.45455 15.5924 8.45465 15.5925 8.45471 15.5925C8.45482 15.5927 8.45491 15.5928 8.45498 15.5928C8.4551 15.593 8.45513 15.593 8.45507 15.5929C8.45493 15.5928 8.45441 15.5922 8.45351 15.5912C8.45172 15.5892 8.44843 15.5856 8.44374 15.5803C8.43436 15.5698 8.4194 15.5528 8.39966 15.5296C8.36015 15.4832 8.30167 15.4125 8.2305 15.3199C8.08782 15.1344 7.89619 14.864 7.70466 14.53C7.31713 13.8541 6.95402 12.9596 6.95402 12H5.75402C5.75402 13.2495 6.22105 14.355 6.66366 15.1269C6.88719 15.5167 7.11063 15.8321 7.27924 16.0514C7.36373 16.1613 7.43495 16.2477 7.48624 16.3079C7.5119 16.338 7.53261 16.3616 7.54755 16.3784C7.55502 16.3868 7.56105 16.3934 7.56554 16.3984C7.56778 16.4008 7.56964 16.4029 7.57111 16.4045C7.57184 16.4053 7.57247 16.406 7.573 16.4065C7.57326 16.4068 7.5735 16.4071 7.57372 16.4073C7.57383 16.4074 7.57397 16.4076 7.57402 16.4076C7.57416 16.4078 7.57429 16.4079 8.01429 16ZM6.036 11.5335C5.36291 12.2109 4.47908 12.5845 3.731 12.7864C3.36129 12.8861 3.03617 12.9409 2.80514 12.9705C2.68993 12.9853 2.59895 12.9937 2.53853 12.9984C2.50834 13.0007 2.48586 13.0021 2.47186 13.0029C2.46487 13.0033 2.46001 13.0035 2.45737 13.0036C2.45606 13.0037 2.4553 13.0037 2.45511 13.0037C2.45502 13.0037 2.45507 13.0037 2.45526 13.0037C2.45536 13.0037 2.45549 13.0037 2.45566 13.0037C2.45574 13.0037 2.4559 13.0037 2.45594 13.0037C2.4561 13.0037 2.45627 13.0037 2.47719 13.6033C2.4981 14.2029 2.49829 14.2029 2.49849 14.2029C2.49857 14.2029 2.49878 14.2029 2.49894 14.2029C2.49926 14.2029 2.49961 14.2029 2.5 14.2029C2.50079 14.2029 2.50172 14.2028 2.5028 14.2028C2.50496 14.2027 2.50772 14.2026 2.51105 14.2024C2.51772 14.2021 2.5267 14.2017 2.5379 14.2011C2.5603 14.1998 2.59158 14.1979 2.63093 14.1948C2.70959 14.1888 2.82076 14.1784 2.95782 14.1608C3.23135 14.1257 3.6113 14.0616 4.04368 13.9449C4.89977 13.7139 6.00815 13.264 6.88723 12.3793L6.036 11.5335ZM2.47719 13.6033C3.07683 13.624 3.07683 13.6241 3.07682 13.6243C3.07682 13.6243 3.07681 13.6245 3.07681 13.6246C3.07681 13.6247 3.0768 13.6249 3.0768 13.625C3.07679 13.6251 3.07679 13.6252 3.07679 13.6251C3.0768 13.6249 3.07683 13.6241 3.07689 13.6227C3.07701 13.6201 3.07724 13.6151 3.07763 13.608C3.0784 13.5939 3.07978 13.5712 3.0821 13.5407C3.08675 13.4797 3.09515 13.388 3.10986 13.2718C3.13935 13.0389 3.19384 12.7112 3.29313 12.3386C3.49408 11.5845 3.86585 10.694 4.53926 10.0163L3.68803 9.17048C2.80928 10.0549 2.36282 11.1694 2.13358 12.0297C2.01778 12.4643 1.95418 12.8462 1.91937 13.121C1.90192 13.2588 1.8916 13.3705 1.88558 13.4495C1.88256 13.489 1.88062 13.5204 1.8794 13.5428C1.87879 13.5541 1.87836 13.5631 1.87806 13.5697C1.87792 13.5731 1.8778 13.5758 1.87772 13.578C1.87767 13.5791 1.87764 13.58 1.87761 13.5808C1.8776 13.5812 1.87758 13.5815 1.87757 13.5818C1.87757 13.582 1.87756 13.5822 1.87756 13.5823C1.87755 13.5825 1.87754 13.5827 2.47719 13.6033ZM4.53926 10.0163C5.21053 9.34073 6.08341 8.98063 6.81992 8.79218C7.18416 8.69898 7.50398 8.65063 7.73099 8.62571C7.84419 8.61329 7.93346 8.60679 7.9926 8.60342C8.02215 8.60174 8.0441 8.60084 8.05768 8.60038C8.06447 8.60015 8.06916 8.60003 8.07165 8.59997C8.0729 8.59994 8.07359 8.59993 8.07373 8.59992C8.07379 8.59992 8.07372 8.59993 8.0735 8.59993C8.0734 8.59993 8.07325 8.59993 8.07307 8.59993C8.07298 8.59994 8.07282 8.59994 8.07278 8.59994C8.07261 8.59994 8.07243 8.59994 8.0646 7.99999C8.05677 7.40005 8.05658 7.40005 8.05637 7.40005C8.05629 7.40005 8.05607 7.40005 8.05591 7.40006C8.05558 7.40006 8.05522 7.40007 8.05482 7.40007C8.05402 7.40009 8.05308 7.4001 8.05198 7.40012C8.0498 7.40016 8.04703 7.40022 8.04369 7.40029C8.03701 7.40045 8.02804 7.40069 8.01688 7.40107C7.99457 7.40183 7.96347 7.40314 7.92439 7.40536C7.84629 7.40981 7.73602 7.41795 7.60008 7.43287C7.32882 7.46264 6.95193 7.51974 6.52246 7.62963C5.67153 7.84735 4.56893 8.28394 3.68803 9.17048L4.53926 10.0163ZM8.0646 7.99999C7.46474 7.98726 7.46474 7.98709 7.46474 7.98692C7.46474 7.98687 7.46475 7.98671 7.46475 7.98663C7.46475 7.98645 7.46476 7.98631 7.46476 7.98621C7.46476 7.986 7.46477 7.98593 7.46476 7.986C7.46476 7.98615 7.46474 7.98685 7.4647 7.98811C7.46462 7.99062 7.46446 7.99533 7.46418 8.00213C7.46361 8.01575 7.46254 8.03772 7.46063 8.06729C7.45681 8.12647 7.44965 8.21577 7.43644 8.32902C7.40997 8.55613 7.35957 8.87624 7.26454 9.2412C7.07238 9.97908 6.70935 10.8558 6.036 11.5335L6.88723 12.3793C7.76605 11.4948 8.20451 10.3934 8.42581 9.54361C8.53749 9.11472 8.59682 8.73863 8.62837 8.46799C8.64418 8.33238 8.65312 8.22242 8.65814 8.14456C8.66065 8.10561 8.66219 8.07462 8.66312 8.0524C8.66359 8.04128 8.66391 8.03235 8.66411 8.02571C8.66422 8.02239 8.6643 8.01964 8.66435 8.01747C8.66438 8.01639 8.6644 8.01545 8.66442 8.01466C8.66443 8.01426 8.66444 8.0139 8.66445 8.01358C8.66445 8.01342 8.66446 8.01321 8.66446 8.01313C8.66446 8.01292 8.66447 8.01273 8.0646 7.99999ZM9.87224 11.5335C9.20847 10.8655 8.88696 10.0015 8.73598 9.27096C8.66129 8.90957 8.63078 8.59235 8.619 8.36717C8.61313 8.25492 8.61196 8.16651 8.61217 8.10807C8.61227 8.07888 8.61272 8.05725 8.61309 8.04396C8.61327 8.03732 8.61344 8.03277 8.61353 8.0304C8.61358 8.02922 8.61361 8.02859 8.61361 8.02851C8.61361 8.02848 8.61361 8.02858 8.6136 8.02883C8.61359 8.02895 8.61358 8.02911 8.61357 8.0293C8.61357 8.0294 8.61356 8.02957 8.61356 8.02962C8.61355 8.0298 8.61354 8.02999 8.01429 7.99999C7.41504 7.97 7.41503 7.97021 7.41502 7.97043C7.41501 7.97051 7.415 7.97074 7.41499 7.97091C7.41498 7.97125 7.41496 7.97162 7.41494 7.97204C7.4149 7.97286 7.41486 7.97384 7.41481 7.97496C7.41471 7.9772 7.41459 7.98002 7.41445 7.98342C7.41419 7.99021 7.41387 7.99929 7.41355 8.01057C7.41293 8.03311 7.41232 8.06445 7.41218 8.10378C7.41189 8.18238 7.41349 8.29323 7.42064 8.42985C7.43489 8.70241 7.47144 9.08139 7.56081 9.51384C7.73795 10.3709 8.13261 11.4852 9.02101 12.3793L9.87224 11.5335ZM8.01429 7.99999C8.00586 8.59994 8.00567 8.59993 8.00548 8.59993C8.00543 8.59993 8.00525 8.59993 8.00515 8.59993C8.00495 8.59992 8.00478 8.59992 8.00464 8.59992C8.00437 8.59991 8.00422 8.59991 8.00421 8.59991C8.00419 8.59991 8.00468 8.59992 8.00569 8.59994C8.0077 8.59999 8.01176 8.60011 8.01777 8.60033C8.02978 8.60077 8.04959 8.60163 8.07648 8.60327C8.13031 8.60656 8.21225 8.61295 8.3168 8.62521C8.52643 8.64979 8.8238 8.69764 9.16576 8.7901C9.85482 8.97643 10.6918 9.33476 11.369 10.0163L12.2202 9.17048C11.3452 8.28992 10.292 7.85155 9.47899 7.63171C9.0699 7.52109 8.71323 7.46348 8.45657 7.43338C8.32798 7.41829 8.22373 7.41003 8.14964 7.40551C8.11258 7.40324 8.08299 7.40191 8.06162 7.40113C8.05092 7.40074 8.04228 7.40048 8.03577 7.40032C8.03251 7.40024 8.02979 7.40018 8.02761 7.40014C8.02652 7.40012 8.02557 7.4001 8.02475 7.40008C8.02434 7.40008 8.02397 7.40007 8.02363 7.40007C8.02346 7.40006 8.02323 7.40006 8.02315 7.40006C8.02293 7.40006 8.02272 7.40005 8.01429 7.99999ZM11.369 10.0163C12.0424 10.694 12.4142 11.5845 12.6151 12.3386C12.7144 12.7112 12.7689 13.0389 12.7984 13.2718C12.8131 13.388 12.8215 13.4797 12.8261 13.5407C12.8285 13.5712 12.8298 13.5939 12.8306 13.608C12.831 13.6151 12.8312 13.6201 12.8313 13.6227C12.8314 13.6241 12.8314 13.6249 12.8314 13.6251C12.8314 13.6252 12.8314 13.6251 12.8314 13.625C12.8314 13.6249 12.8314 13.6247 12.8314 13.6246C12.8314 13.6245 12.8314 13.6243 12.8314 13.6243C12.8314 13.6241 12.8314 13.624 13.431 13.6033C14.0307 13.5827 14.0307 13.5825 14.0307 13.5823C14.0307 13.5822 14.0307 13.582 14.0307 13.5818C14.0307 13.5815 14.0306 13.5812 14.0306 13.5808C14.0306 13.58 14.0306 13.5791 14.0305 13.578C14.0304 13.5758 14.0303 13.5731 14.0302 13.5697C14.0299 13.5631 14.0294 13.5541 14.0288 13.5428C14.0276 13.5204 14.0257 13.489 14.0227 13.4495C14.0166 13.3705 14.0063 13.2588 13.9889 13.121C13.9541 12.8462 13.8905 12.4643 13.7747 12.0296C13.5454 11.1694 13.099 10.0549 12.2202 9.17048L11.369 10.0163ZM13.431 13.6033C13.452 13.0037 13.4521 13.0037 13.4523 13.0037C13.4523 13.0037 13.4525 13.0037 13.4526 13.0037C13.4527 13.0037 13.4529 13.0037 13.453 13.0037C13.4532 13.0037 13.4532 13.0037 13.4531 13.0037C13.4529 13.0037 13.4522 13.0037 13.4509 13.0036C13.4482 13.0035 13.4434 13.0033 13.4364 13.0029C13.4224 13.0021 13.3999 13.0007 13.3697 12.9984C13.3093 12.9937 13.2183 12.9853 13.1031 12.9705C12.8721 12.9409 12.5469 12.8861 12.1772 12.7864C11.4292 12.5845 10.5453 12.2109 9.87224 11.5335L9.02101 12.3793C9.90008 13.264 11.0085 13.7139 11.8646 13.9449C12.2969 14.0616 12.6769 14.1257 12.9504 14.1608C13.0875 14.1784 13.1986 14.1888 13.2773 14.1948C13.3167 14.1979 13.3479 14.1998 13.3703 14.2011C13.3815 14.2017 13.3905 14.2021 13.3972 14.2024C13.4005 14.2026 13.4033 14.2027 13.4054 14.2028C13.4065 14.2028 13.4074 14.2029 13.4082 14.2029C13.4086 14.2029 13.409 14.2029 13.4093 14.2029C13.4095 14.2029 13.4097 14.2029 13.4097 14.2029C13.4099 14.2029 13.4101 14.2029 13.431 13.6033ZM4.50578 5.93013C3.84202 5.26212 3.52051 4.3982 3.36953 3.66763C3.29484 3.30623 3.26433 2.98901 3.25255 2.76383C3.24668 2.65158 3.24551 2.56317 3.24572 2.50473C3.24582 2.47554 3.24627 2.45391 3.24664 2.44062C3.24683 2.43398 3.24699 2.42943 3.24708 2.42706C3.24713 2.42588 3.24716 2.42525 3.24716 2.42518C3.24716 2.42514 3.24716 2.42524 3.24715 2.42549C3.24714 2.42561 3.24713 2.42577 3.24712 2.42596C3.24712 2.42606 3.24711 2.42623 3.24711 2.42628C3.2471 2.42646 3.24709 2.42665 2.64784 2.39666C2.04859 2.36666 2.04858 2.36687 2.04857 2.36709C2.04857 2.36717 2.04855 2.3674 2.04855 2.36757C2.04853 2.36791 2.04851 2.36829 2.04849 2.3687C2.04845 2.36952 2.04841 2.3705 2.04836 2.37162C2.04826 2.37386 2.04814 2.37668 2.048 2.38008C2.04774 2.38687 2.04742 2.39596 2.04711 2.40723C2.04648 2.42977 2.04587 2.46111 2.04573 2.50044C2.04545 2.57904 2.04704 2.68989 2.05419 2.82651C2.06844 3.09908 2.10499 3.47806 2.19436 3.9105C2.3715 4.76759 2.76615 5.88187 3.65456 6.77595L4.50578 5.93013ZM2.64784 2.39666C2.63941 2.9966 2.63922 2.99659 2.63903 2.99659C2.63898 2.99659 2.6388 2.99659 2.6387 2.99659C2.6385 2.99658 2.63833 2.99658 2.63819 2.99658C2.63792 2.99657 2.63777 2.99657 2.63776 2.99657C2.63774 2.99657 2.63823 2.99658 2.63924 2.9966C2.64126 2.99666 2.64531 2.99677 2.65132 2.99699C2.66334 2.99743 2.68314 2.99829 2.71003 2.99994C2.76386 3.00322 2.8458 3.00961 2.95035 3.02187C3.15998 3.04645 3.45735 3.0943 3.79931 3.18677C4.48837 3.37309 5.32532 3.73142 6.00252 4.41296L6.85375 3.56714C5.97879 2.68658 4.92559 2.24822 4.11254 2.02837C3.70345 1.91775 3.34678 1.86014 3.09013 1.83004C2.96153 1.81496 2.85728 1.80669 2.78319 1.80217C2.74613 1.7999 2.71655 1.79857 2.69517 1.79779C2.68448 1.7974 2.67583 1.79715 2.66932 1.79698C2.66606 1.7969 2.66334 1.79684 2.66116 1.7968C2.66007 1.79678 2.65912 1.79676 2.6583 1.79675C2.65789 1.79674 2.65752 1.79673 2.65718 1.79673C2.65701 1.79673 2.65678 1.79672 2.6567 1.79672C2.65648 1.79672 2.65627 1.79672 2.64784 2.39666ZM6.00252 4.41296C6.67593 5.09068 7.04771 5.98115 7.24866 6.7353C7.34795 7.1079 7.40243 7.43559 7.43193 7.6685C7.44664 7.78465 7.45503 7.8764 7.45968 7.93738C7.46201 7.96785 7.46339 7.99056 7.46416 8.00472C7.46455 8.0118 7.46478 8.01674 7.4649 8.01942C7.46496 8.02077 7.46499 8.02155 7.465 8.02176C7.465 8.02186 7.465 8.02182 7.46499 8.02164C7.46499 8.02154 7.46498 8.02142 7.46498 8.02125C7.46497 8.02117 7.46497 8.02102 7.46497 8.02098C7.46496 8.02081 7.46496 8.02064 8.0646 7.99999C8.66425 7.97934 8.66424 7.97916 8.66423 7.97896C8.66423 7.97888 8.66422 7.97867 8.66422 7.97851C8.6642 7.9782 8.66419 7.97785 8.66418 7.97746C8.66415 7.97668 8.66411 7.97575 8.66407 7.97467C8.66399 7.97251 8.66387 7.96976 8.66373 7.96642C8.66343 7.95976 8.663 7.95075 8.66239 7.93952C8.66117 7.91706 8.65922 7.88566 8.65621 7.84614C8.65019 7.76715 8.63987 7.65546 8.62242 7.51772C8.58761 7.24284 8.52401 6.86094 8.4082 6.42632C8.17896 5.56602 7.73251 4.45152 6.85375 3.56714L6.00252 4.41296ZM8.0646 7.99999C8.08552 7.40036 8.08569 7.40036 8.08586 7.40037C8.0859 7.40037 8.08605 7.40038 8.08614 7.40038C8.0863 7.40039 8.08644 7.40039 8.08653 7.4004C8.08673 7.4004 8.08678 7.4004 8.08668 7.4004C8.08649 7.40039 8.08574 7.40036 8.08442 7.4003C8.08179 7.40019 8.07692 7.39995 8.06993 7.39957C8.05594 7.3988 8.03345 7.39741 8.00326 7.39508C7.94284 7.39041 7.85187 7.38199 7.73665 7.3672C7.50562 7.33757 7.1805 7.28281 6.81079 7.18303C6.06271 6.98113 5.17887 6.60753 4.50578 5.93013L3.65456 6.77595C4.53363 7.66065 5.64201 8.11053 6.49811 8.34158C6.93048 8.45827 7.31044 8.52236 7.58396 8.55745C7.72102 8.57503 7.83219 8.58544 7.91085 8.59152C7.9502 8.59455 7.98149 8.59652 8.00388 8.59775C8.01508 8.59837 8.02407 8.5988 8.03073 8.5991C8.03407 8.59925 8.03682 8.59937 8.03898 8.59945C8.04006 8.5995 8.041 8.59953 8.04178 8.59956C8.04217 8.59958 8.04253 8.59959 8.04284 8.5996C8.043 8.59961 8.04321 8.59961 8.04329 8.59962C8.04349 8.59962 8.04368 8.59963 8.0646 7.99999ZM3.97457 6.92911C4.92528 6.92911 5.81242 7.29355 6.48369 7.6834C6.81533 7.87601 7.08381 8.06874 7.26812 8.21229C7.36004 8.28388 7.43034 8.34271 7.4764 8.38246C7.49941 8.40231 7.51632 8.41736 7.52678 8.4268C7.53201 8.43151 7.53562 8.43482 7.53758 8.43662C7.53856 8.43752 7.53912 8.43805 7.53927 8.43818C7.53934 8.43825 7.53931 8.43822 7.53917 8.43809C7.5391 8.43802 7.539 8.43794 7.53888 8.43782C7.53882 8.43776 7.53871 8.43766 7.53868 8.43763C7.53856 8.43752 7.53843 8.4374 7.94914 8C8.35985 7.5626 8.35971 7.56247 8.35957 7.56234C8.35951 7.56228 8.35936 7.56214 8.35924 7.56203C8.35901 7.56182 8.35875 7.56157 8.35847 7.56131C8.3579 7.56077 8.35721 7.56014 8.35642 7.5594C8.35484 7.55793 8.35282 7.55606 8.35036 7.5538C8.34545 7.54928 8.33881 7.5432 8.33047 7.53568C8.31379 7.52064 8.29032 7.49979 8.26039 7.47396C8.20055 7.42233 8.11469 7.35062 8.00548 7.26556C7.78754 7.09582 7.47396 6.87083 7.08635 6.64571C6.3191 6.20012 5.21895 5.72912 3.97457 5.72912V6.92911ZM7.94914 8C7.53843 7.5626 7.53856 7.56249 7.53868 7.56237C7.53871 7.56235 7.53882 7.56224 7.53888 7.56218C7.539 7.56207 7.5391 7.56198 7.53917 7.56192C7.53931 7.56179 7.53934 7.56176 7.53927 7.56182C7.53912 7.56196 7.53856 7.56248 7.53758 7.56338C7.53562 7.56519 7.53201 7.56849 7.52678 7.57321C7.51632 7.58265 7.49941 7.59769 7.4764 7.61755C7.43034 7.65729 7.36004 7.71613 7.26812 7.78771C7.08381 7.93126 6.81533 8.12399 6.48369 8.3166C5.81242 8.70645 4.92528 9.07089 3.97457 9.07089V10.2709C5.21895 10.2709 6.3191 9.79988 7.08635 9.35429C7.47396 9.12918 7.78754 8.90419 8.00548 8.73444C8.11469 8.64939 8.20055 8.57768 8.26039 8.52605C8.29032 8.50022 8.31379 8.47937 8.33047 8.46432C8.33881 8.4568 8.34545 8.45073 8.35036 8.44621C8.35282 8.44395 8.35484 8.44208 8.35642 8.4406C8.35721 8.43987 8.3579 8.43923 8.35847 8.4387C8.35875 8.43843 8.35901 8.43819 8.35924 8.43797C8.35936 8.43787 8.35951 8.43772 8.35957 8.43767C8.35971 8.43753 8.35985 8.4374 7.94914 8ZM3.97457 9.07089C3.02386 9.07089 2.13672 8.70645 1.46545 8.3166C1.13381 8.12399 0.86533 7.93126 0.681022 7.78771C0.589108 7.71613 0.518799 7.65729 0.47274 7.61755C0.449729 7.59769 0.432827 7.58265 0.422365 7.57321C0.417135 7.56849 0.413521 7.56519 0.411563 7.56338C0.410584 7.56248 0.41002 7.56196 0.409876 7.56182C0.409804 7.56176 0.409837 7.56179 0.409975 7.56192C0.410044 7.56198 0.41014 7.56207 0.410262 7.56218C0.410323 7.56224 0.410435 7.56235 0.410465 7.56237C0.410583 7.56249 0.410708 7.5626 0 8C-0.410708 8.4374 -0.41057 8.43753 -0.410425 8.43767C-0.410367 8.43772 -0.410215 8.43787 -0.410099 8.43797C-0.409869 8.43819 -0.409611 8.43843 -0.409325 8.4387C-0.408753 8.43923 -0.408071 8.43987 -0.40728 8.4406C-0.405697 8.44208 -0.403675 8.44395 -0.40122 8.44621C-0.39631 8.45073 -0.389664 8.4568 -0.381324 8.46432C-0.364648 8.47937 -0.341175 8.50022 -0.311242 8.52605C-0.251411 8.57768 -0.165549 8.64939 -0.056339 8.73444C0.161601 8.90419 0.47518 9.12918 0.862796 9.35429C1.63004 9.79988 2.73019 10.2709 3.97457 10.2709V9.07089ZM0 8C0.410708 8.4374 0.410584 8.43752 0.410465 8.43763C0.410435 8.43766 0.410323 8.43776 0.410262 8.43782C0.41014 8.43794 0.410044 8.43802 0.409975 8.43809C0.409837 8.43822 0.409804 8.43825 0.409876 8.43818C0.41002 8.43805 0.410584 8.43752 0.411563 8.43662C0.413521 8.43482 0.417136 8.43151 0.422365 8.4268C0.432827 8.41736 0.449729 8.40231 0.47274 8.38246C0.518799 8.34271 0.589108 8.28388 0.681022 8.21229C0.86533 8.06874 1.13381 7.87601 1.46545 7.6834C2.13672 7.29355 3.02386 6.92911 3.97457 6.92911V5.72912C2.73019 5.72912 1.63004 6.20012 0.862796 6.64571C0.47518 6.87083 0.161601 7.09582 -0.0563391 7.26556C-0.165549 7.35062 -0.251411 7.42233 -0.311242 7.47396C-0.341175 7.49979 -0.364648 7.52064 -0.381324 7.53568C-0.389664 7.5432 -0.39631 7.54928 -0.40122 7.5538C-0.403675 7.55606 -0.405697 7.55793 -0.40728 7.5594C-0.408071 7.56014 -0.408753 7.56077 -0.409325 7.56131C-0.409611 7.56157 -0.409869 7.56182 -0.4101 7.56203C-0.410215 7.56214 -0.410367 7.56228 -0.410425 7.56234C-0.41057 7.56247 -0.410708 7.5626 0 8ZM12.0254 6.92911C12.9761 6.92911 13.8633 7.29355 14.5345 7.6834C14.8662 7.87601 15.1347 8.06874 15.319 8.21229C15.4109 8.28388 15.4812 8.34271 15.5273 8.38246C15.5503 8.40231 15.5672 8.41736 15.5776 8.4268C15.5829 8.43151 15.5865 8.43482 15.5884 8.43662C15.5894 8.43752 15.59 8.43805 15.5901 8.43818C15.5902 8.43825 15.5902 8.43822 15.59 8.43809C15.59 8.43802 15.5899 8.43793 15.5897 8.43782C15.5897 8.43776 15.5896 8.43766 15.5895 8.43763C15.5894 8.43752 15.5893 8.4374 16 8C16.4107 7.5626 16.4106 7.56247 16.4104 7.56234C16.4104 7.56228 16.4102 7.56214 16.4101 7.56203C16.4099 7.56182 16.4096 7.56157 16.4093 7.56131C16.4088 7.56077 16.4081 7.56014 16.4073 7.5594C16.4057 7.55793 16.4037 7.55606 16.4012 7.5538C16.3963 7.54928 16.3897 7.5432 16.3813 7.53568C16.3646 7.52064 16.3412 7.49979 16.3112 7.47396C16.2514 7.42233 16.1656 7.35062 16.0563 7.26556C15.8384 7.09582 15.5248 6.87083 15.1372 6.64571C14.37 6.20012 13.2698 5.72912 12.0254 5.72912V6.92911ZM16 8C15.5893 7.5626 15.5894 7.56249 15.5895 7.56237C15.5896 7.56235 15.5897 7.56224 15.5897 7.56218C15.5899 7.56207 15.59 7.56198 15.59 7.56192C15.5902 7.56179 15.5902 7.56176 15.5901 7.56182C15.59 7.56196 15.5894 7.56248 15.5884 7.56338C15.5865 7.56519 15.5829 7.56849 15.5776 7.57321C15.5672 7.58265 15.5503 7.59769 15.5273 7.61755C15.4812 7.65729 15.4109 7.71613 15.319 7.78771C15.1347 7.93126 14.8662 8.12399 14.5345 8.3166C13.8633 8.70645 12.9761 9.07089 12.0254 9.07089V10.2709C13.2698 10.2709 14.37 9.79988 15.1372 9.35429C15.5248 9.12918 15.8384 8.90419 16.0563 8.73444C16.1656 8.64939 16.2514 8.57768 16.3112 8.52605C16.3412 8.50022 16.3646 8.47937 16.3813 8.46432C16.3897 8.4568 16.3963 8.45073 16.4012 8.44621C16.4037 8.44395 16.4057 8.44208 16.4073 8.4406C16.4081 8.43987 16.4088 8.43923 16.4093 8.4387C16.4096 8.43843 16.4099 8.43819 16.4101 8.43797C16.4102 8.43787 16.4104 8.43772 16.4104 8.43767C16.4106 8.43753 16.4107 8.4374 16 8ZM12.0254 9.07089C11.0747 9.07089 10.1876 8.70645 9.51631 8.3166C9.18467 8.12399 8.91619 7.93126 8.73188 7.78771C8.63997 7.71613 8.56966 7.65729 8.5236 7.61755C8.50059 7.59769 8.48368 7.58265 8.47322 7.57321C8.46799 7.56849 8.46438 7.56518 8.46242 7.56338C8.46144 7.56248 8.46088 7.56196 8.46073 7.56182C8.46066 7.56176 8.46069 7.56179 8.46083 7.56192C8.4609 7.56198 8.461 7.56207 8.46112 7.56218C8.46118 7.56224 8.46129 7.56235 8.46132 7.56237C8.46144 7.56249 8.46157 7.5626 8.05086 8C7.64015 8.4374 7.64029 8.43753 7.64043 8.43767C7.64049 8.43772 7.64064 8.43787 7.64076 8.43797C7.64099 8.43819 7.64125 8.43843 7.64153 8.4387C7.6421 8.43923 7.64279 8.43987 7.64358 8.4406C7.64516 8.44208 7.64718 8.44395 7.64964 8.44621C7.65455 8.45073 7.66119 8.4568 7.66953 8.46432C7.68621 8.47937 7.70968 8.50022 7.73961 8.52605C7.79945 8.57768 7.88531 8.64939 7.99452 8.73444C8.21246 8.90419 8.52604 9.12918 8.91365 9.35429C9.6809 9.79988 10.781 10.2709 12.0254 10.2709V9.07089ZM8.05086 8C8.46157 8.4374 8.46144 8.43752 8.46132 8.43763C8.46129 8.43766 8.46118 8.43776 8.46112 8.43782C8.461 8.43794 8.4609 8.43802 8.46083 8.43809C8.46069 8.43822 8.46066 8.43825 8.46073 8.43818C8.46088 8.43805 8.46144 8.43752 8.46242 8.43662C8.46438 8.43482 8.46799 8.43151 8.47322 8.4268C8.48368 8.41736 8.50059 8.40231 8.5236 8.38246C8.56966 8.34271 8.63997 8.28388 8.73188 8.21229C8.91619 8.06874 9.18467 7.87601 9.51631 7.6834C10.1876 7.29355 11.0747 6.92911 12.0254 6.92911V5.72912C10.781 5.72912 9.6809 6.20012 8.91365 6.64571C8.52604 6.87083 8.21246 7.09582 7.99452 7.26556C7.88531 7.35062 7.79945 7.42233 7.73961 7.47396C7.70968 7.49979 7.68621 7.52064 7.66953 7.53568C7.66119 7.5432 7.65455 7.54928 7.64964 7.5538C7.64718 7.55606 7.64516 7.55793 7.64358 7.5594C7.64279 7.56014 7.6421 7.56077 7.64153 7.56131C7.64125 7.56157 7.64099 7.56182 7.64076 7.56203C7.64064 7.56214 7.64049 7.56228 7.64043 7.56234C7.64029 7.56247 7.64015 7.5626 8.05086 8ZM6.99059 4C6.99059 3.0404 7.3537 2.14586 7.74122 1.47003C7.93275 1.13601 8.12438 0.865649 8.26707 0.680091C8.33824 0.587548 8.39672 0.516759 8.43623 0.470386C8.45597 0.447217 8.47092 0.430198 8.48031 0.419663C8.48499 0.414397 8.48829 0.410757 8.49008 0.408784C8.49098 0.407798 8.4915 0.407229 8.49163 0.407082C8.4917 0.407009 8.49167 0.407042 8.49154 0.407181C8.49148 0.40725 8.49139 0.407346 8.49127 0.407469C8.49122 0.40753 8.49111 0.407642 8.49109 0.407673C8.49098 0.407792 8.49086 0.407917 8.05086 0C7.61085 -0.407917 7.61072 -0.407778 7.61059 -0.407632C7.61053 -0.407574 7.61039 -0.407421 7.61028 -0.407305C7.61007 -0.407073 7.60983 -0.406813 7.60957 -0.406526C7.60903 -0.405951 7.6084 -0.405265 7.60767 -0.404469C7.60621 -0.402877 7.60435 -0.400844 7.60211 -0.398374C7.59762 -0.393436 7.59159 -0.38675 7.58411 -0.37836C7.56918 -0.361583 7.54846 -0.337969 7.5228 -0.307854C7.47152 -0.24766 7.40029 -0.161279 7.31581 -0.051411C7.1472 0.167853 6.92376 0.483276 6.70022 0.873114C6.25762 1.645 5.79059 2.75047 5.79059 4H6.99059ZM8.05086 0C7.61085 0.407917 7.61073 0.407791 7.61062 0.407673C7.6106 0.407642 7.61049 0.40753 7.61044 0.407469C7.61032 0.407346 7.61023 0.40725 7.61017 0.40718C7.61004 0.407042 7.61001 0.407009 7.61008 0.407082C7.61021 0.407229 7.61074 0.407798 7.61163 0.408784C7.61343 0.410757 7.61672 0.414397 7.62141 0.419663C7.63079 0.430198 7.64574 0.447217 7.66548 0.470386C7.70499 0.516759 7.76348 0.587548 7.83464 0.680091C7.97733 0.865649 8.16896 1.13601 8.36049 1.47003C8.74801 2.14586 9.11112 3.0404 9.11112 4H10.3111C10.3111 2.75047 9.8441 1.645 9.40149 0.873114C9.17795 0.483276 8.95451 0.167853 8.7859 -0.0514109C8.70142 -0.161279 8.63019 -0.24766 8.57891 -0.307854C8.55325 -0.337969 8.53254 -0.361583 8.5176 -0.37836C8.51013 -0.38675 8.50409 -0.393436 8.4996 -0.398374C8.49736 -0.400844 8.4955 -0.402877 8.49404 -0.404469C8.49331 -0.405265 8.49268 -0.405951 8.49215 -0.406526C8.49188 -0.406813 8.49164 -0.407073 8.49143 -0.407305C8.49132 -0.407421 8.49118 -0.407574 8.49112 -0.407632C8.49099 -0.407778 8.49086 -0.407917 8.05086 0ZM9.11112 4C9.11112 4.95961 8.74801 5.85414 8.36049 6.52997C8.16896 6.86399 7.97733 7.13435 7.83464 7.31991C7.76348 7.41246 7.70499 7.48324 7.66548 7.52962C7.64574 7.55279 7.63079 7.5698 7.62141 7.58034C7.61672 7.58561 7.61343 7.58925 7.61163 7.59122C7.61074 7.5922 7.61022 7.59277 7.61008 7.59292C7.61001 7.59299 7.61004 7.59296 7.61017 7.59282C7.61024 7.59275 7.61032 7.59266 7.61044 7.59253C7.61049 7.59247 7.6106 7.59236 7.61063 7.59233C7.61074 7.59221 7.61085 7.59209 8.05086 8C8.49086 8.40792 8.49099 8.40778 8.49113 8.40763C8.49118 8.40758 8.49132 8.40742 8.49143 8.40731C8.49164 8.40708 8.49188 8.40682 8.49215 8.40653C8.49268 8.40595 8.49331 8.40527 8.49404 8.40447C8.4955 8.40288 8.49736 8.40085 8.49961 8.39838C8.5041 8.39344 8.51013 8.38675 8.5176 8.37836C8.53254 8.36159 8.55325 8.33797 8.57891 8.30786C8.63019 8.24766 8.70142 8.16128 8.7859 8.05141C8.95451 7.83215 9.17795 7.51673 9.40149 7.12689C9.8441 6.355 10.3111 5.24954 10.3111 4H9.11112ZM8.05086 8C8.49086 7.59208 8.49098 7.59221 8.49109 7.59233C8.49111 7.59236 8.49122 7.59247 8.49128 7.59253C8.49139 7.59266 8.49148 7.59275 8.49154 7.59282C8.49167 7.59296 8.4917 7.59299 8.49163 7.59292C8.4915 7.59277 8.49098 7.5922 8.49008 7.59122C8.48829 7.58924 8.485 7.5856 8.48031 7.58034C8.47093 7.5698 8.45597 7.55278 8.43623 7.52962C8.39672 7.48324 8.33824 7.41245 8.26707 7.31991C8.12438 7.13435 7.93275 6.86399 7.74123 6.52997C7.3537 5.85414 6.99059 4.95961 6.99059 4H5.79059C5.79059 5.24954 6.25762 6.355 6.70022 7.12689C6.92376 7.51673 7.1472 7.83215 7.31581 8.05141C7.40029 8.16128 7.47152 8.24766 7.52281 8.30786C7.54846 8.33797 7.56918 8.36159 7.58412 8.37836C7.59159 8.38675 7.59762 8.39344 7.60211 8.39838C7.60435 8.40085 7.60621 8.40288 7.60767 8.40447C7.60841 8.40527 7.60904 8.40595 7.60957 8.40653C7.60983 8.40682 7.61007 8.40708 7.61029 8.40731C7.61039 8.40742 7.61054 8.40758 7.61059 8.40763C7.61072 8.40778 7.61085 8.40792 8.05086 8ZM4.07633 6.92911C5.02704 6.92911 5.91417 7.29355 6.58542 7.6834C6.91705 7.87601 7.18553 8.06874 7.36984 8.21229C7.46175 8.28387 7.53206 8.34271 7.57811 8.38245C7.60112 8.40231 7.61803 8.41735 7.62849 8.42679C7.63372 8.43151 7.63733 8.43482 7.63929 8.43662C7.64027 8.43752 7.64083 8.43804 7.64097 8.43818C7.64105 8.43824 7.64101 8.43821 7.64088 8.43808C7.64081 8.43802 7.64071 8.43793 7.64059 8.43782C7.64053 8.43776 7.64042 8.43765 7.64039 8.43762C7.64027 8.43751 7.64014 8.4374 8.05086 8C8.46157 7.56261 8.46143 7.56248 8.46129 7.56234C8.46123 7.56229 8.46108 7.56215 8.46096 7.56204C8.46073 7.56182 8.46047 7.56158 8.46019 7.56131C8.45962 7.56078 8.45893 7.56014 8.45814 7.55941C8.45656 7.55793 8.45454 7.55606 8.45208 7.5538C8.44717 7.54928 8.44053 7.54321 8.43219 7.53569C8.41551 7.52065 8.39204 7.49979 8.36211 7.47396C8.30228 7.42233 8.21642 7.35062 8.10721 7.26556C7.88927 7.09582 7.5757 6.87083 7.18809 6.64571C6.42085 6.20012 5.32071 5.72911 4.07633 5.72911V6.92911ZM8.05086 8C7.64014 7.56261 7.64027 7.56249 7.64039 7.56238C7.64042 7.56235 7.64053 7.56225 7.64059 7.56219C7.64071 7.56207 7.64081 7.56198 7.64088 7.56192C7.64102 7.56179 7.64105 7.56176 7.64098 7.56183C7.64083 7.56196 7.64027 7.56249 7.63929 7.56339C7.63733 7.56519 7.63372 7.5685 7.62849 7.57321C7.61803 7.58265 7.60112 7.59769 7.57811 7.61755C7.53206 7.6573 7.46175 7.71613 7.36984 7.78772C7.18553 7.93126 6.91705 8.12399 6.58542 8.3166C5.91417 8.70645 5.02704 9.07088 4.07633 9.07088V10.2709C5.32071 10.2709 6.42085 9.79988 7.18808 9.35429C7.5757 9.12917 7.88927 8.90418 8.10721 8.73444C8.21641 8.64938 8.30227 8.57768 8.3621 8.52604C8.39204 8.50021 8.41551 8.47936 8.43219 8.46432C8.44053 8.4568 8.44717 8.45073 8.45208 8.44621C8.45454 8.44394 8.45656 8.44207 8.45814 8.4406C8.45893 8.43986 8.45961 8.43923 8.46019 8.43869C8.46047 8.43843 8.46073 8.43819 8.46096 8.43797C8.46108 8.43786 8.46123 8.43772 8.46129 8.43766C8.46143 8.43753 8.46157 8.4374 8.05086 8ZM4.07633 9.07088C3.12561 9.07088 2.23847 8.70645 1.56721 8.3166C1.23557 8.12399 0.967085 7.93126 0.782777 7.78771C0.690863 7.71612 0.620553 7.65729 0.574495 7.61754C0.551483 7.59769 0.534581 7.58264 0.524119 7.5732C0.51889 7.56849 0.515276 7.56518 0.513318 7.56338C0.512339 7.56248 0.511775 7.56195 0.51163 7.56182C0.511558 7.56175 0.511591 7.56178 0.51173 7.56191C0.511799 7.56198 0.511895 7.56206 0.512017 7.56218C0.512078 7.56224 0.51219 7.56234 0.51222 7.56237C0.512338 7.56248 0.512463 7.5626 0.101755 8C-0.308954 8.4374 -0.308815 8.43753 -0.30867 8.43766C-0.308613 8.43772 -0.30846 8.43786 -0.308345 8.43797C-0.308114 8.43818 -0.307856 8.43843 -0.30757 8.43869C-0.306998 8.43923 -0.306317 8.43986 -0.305525 8.4406C-0.303942 8.44207 -0.30192 8.44394 -0.299465 8.4462C-0.294555 8.45072 -0.28791 8.4568 -0.27957 8.46432C-0.262893 8.47936 -0.239421 8.50021 -0.209487 8.52604C-0.149656 8.57767 -0.0637946 8.64938 0.0454155 8.73444C0.263356 8.90418 0.576934 9.12917 0.96455 9.35429C1.7318 9.79988 2.83194 10.2709 4.07633 10.2709V9.07088ZM0.101755 8C0.512463 8.4374 0.512338 8.43751 0.51222 8.43762C0.51219 8.43765 0.512078 8.43776 0.512017 8.43782C0.511895 8.43793 0.511799 8.43802 0.51173 8.43808C0.511591 8.43821 0.511558 8.43824 0.51163 8.43818C0.511775 8.43804 0.512339 8.43752 0.513318 8.43662C0.515276 8.43482 0.51889 8.43151 0.524119 8.42679C0.534581 8.41735 0.551483 8.40231 0.574495 8.38245C0.620554 8.3427 0.690863 8.28387 0.782777 8.21229C0.967085 8.06874 1.23557 7.87601 1.56721 7.6834C2.23847 7.29355 3.12561 6.92911 4.07633 6.92911V5.72911C2.83194 5.72911 1.7318 6.20011 0.96455 6.64571C0.576934 6.87082 0.263356 7.09581 0.0454154 7.26556C-0.0637947 7.35061 -0.149656 7.42232 -0.209488 7.47395C-0.239421 7.49978 -0.262893 7.52064 -0.27957 7.53568C-0.28791 7.5432 -0.294555 7.54927 -0.299465 7.55379C-0.30192 7.55605 -0.303942 7.55792 -0.305525 7.5594C-0.306317 7.56013 -0.306999 7.56077 -0.30757 7.5613C-0.307856 7.56157 -0.308114 7.56181 -0.308345 7.56203C-0.30846 7.56213 -0.308613 7.56228 -0.30867 7.56233C-0.308815 7.56247 -0.308954 7.5626 0.101755 8ZM10.113 4.41298C10.7763 3.74535 11.6336 3.42243 12.3579 3.27081C12.7164 3.19577 13.031 3.16513 13.2543 3.1533C13.3656 3.1474 13.4533 3.14623 13.5111 3.14644C13.54 3.14654 13.5614 3.14699 13.5746 3.14736C13.5811 3.14755 13.5856 3.14771 13.5879 3.1478C13.5891 3.14785 13.5897 3.14788 13.5897 3.14788C13.5897 3.14788 13.5896 3.14787 13.5894 3.14786C13.5892 3.14786 13.5891 3.14785 13.5889 3.14784C13.5888 3.14783 13.5886 3.14782 13.5886 3.14782C13.5884 3.14781 13.5882 3.1478 13.6186 2.54857C13.6489 1.94934 13.6487 1.94933 13.6485 1.94932C13.6484 1.94932 13.6482 1.9493 13.648 1.9493C13.6477 1.94928 13.6473 1.94926 13.6469 1.94924C13.6461 1.9492 13.6451 1.94916 13.644 1.9491C13.6417 1.949 13.6389 1.94888 13.6355 1.94875C13.6287 1.94848 13.6196 1.94816 13.6084 1.94784C13.5859 1.9472 13.5547 1.94659 13.5155 1.94645C13.4372 1.94616 13.3268 1.94777 13.1908 1.95498C12.9196 1.96935 12.5424 2.00618 12.1121 2.09626C11.2589 2.27486 10.1505 2.67269 9.26172 3.56716L10.113 4.41298ZM13.6186 2.54857C13.0186 2.54025 13.0186 2.54006 13.0186 2.53988C13.0186 2.53983 13.0186 2.53965 13.0186 2.53955C13.0186 2.53935 13.0186 2.53919 13.0186 2.53905C13.0186 2.53879 13.0187 2.53866 13.0187 2.53865C13.0187 2.53865 13.0186 2.53917 13.0186 2.54021C13.0186 2.54228 13.0185 2.5464 13.0182 2.55249C13.0178 2.56467 13.0169 2.5847 13.0153 2.61186C13.012 2.66622 13.0056 2.7489 12.9934 2.85434C12.969 3.06575 12.9213 3.36555 12.8293 3.71026C12.6438 4.4051 12.2872 5.24833 11.6097 5.93015L12.4609 6.77597C13.3356 5.89569 13.7706 4.83667 13.9887 4.01979C14.0985 3.60865 14.1556 3.25022 14.1855 2.99237C14.2004 2.86317 14.2086 2.75846 14.2131 2.6841C14.2154 2.64689 14.2167 2.61721 14.2175 2.59578C14.2178 2.58507 14.2181 2.57641 14.2182 2.5699C14.2183 2.56665 14.2184 2.56393 14.2184 2.56176C14.2184 2.56067 14.2185 2.55972 14.2185 2.55891C14.2185 2.5585 14.2185 2.55813 14.2185 2.5578C14.2185 2.55763 14.2185 2.5574 14.2185 2.55732C14.2185 2.5571 14.2185 2.55689 13.6186 2.54857ZM11.6097 5.93015C10.9366 6.60754 10.0528 6.98115 9.30468 7.18304C8.93496 7.28282 8.60984 7.33758 8.37881 7.36721C8.26359 7.38199 8.17262 7.39042 8.1122 7.39509C8.08201 7.39742 8.05952 7.39881 8.04553 7.39958C8.03854 7.39996 8.03367 7.40019 8.03104 7.40031C8.02972 7.40037 8.02896 7.4004 8.02878 7.40041C8.02868 7.40041 8.02873 7.40041 8.02893 7.4004C8.02902 7.4004 8.02915 7.4004 8.02932 7.40039C8.02941 7.40039 8.02956 7.40038 8.0296 7.40038C8.02977 7.40037 8.02994 7.40037 8.05086 8C8.07177 8.59964 8.07196 8.59963 8.07216 8.59962C8.07224 8.59962 8.07245 8.59961 8.07261 8.59961C8.07293 8.5996 8.07328 8.59958 8.07368 8.59957C8.07446 8.59954 8.07539 8.5995 8.07647 8.59946C8.07864 8.59937 8.08139 8.59926 8.08472 8.59911C8.09139 8.59881 8.10037 8.59838 8.11157 8.59776C8.13397 8.59652 8.16525 8.59456 8.2046 8.59152C8.28326 8.58545 8.39443 8.57504 8.5315 8.55746C8.80502 8.52237 9.18498 8.45828 9.61736 8.34159C10.4735 8.11054 11.5818 7.66067 12.4609 6.77597L11.6097 5.93015ZM8.05086 8C8.6505 8.02066 8.6505 8.02083 8.65049 8.02099C8.65049 8.02103 8.65048 8.02118 8.65048 8.02126C8.65047 8.02143 8.65047 8.02156 8.65047 8.02165C8.65046 8.02184 8.65046 8.02187 8.65046 8.02177C8.65047 8.02156 8.6505 8.02078 8.65056 8.01944C8.65068 8.01675 8.65091 8.01182 8.6513 8.00474C8.65207 7.99058 8.65345 7.96786 8.65577 7.9374C8.66042 7.87642 8.66882 7.78467 8.68353 7.66851C8.71303 7.4356 8.76752 7.10792 8.8668 6.73531C9.06776 5.98117 9.43954 5.0907 10.113 4.41298L9.26172 3.56716C8.38297 4.45154 7.93651 5.56604 7.70726 6.42633C7.59145 6.86095 7.52785 7.24285 7.49304 7.51773C7.47559 7.65547 7.46527 7.76716 7.45925 7.84615C7.45623 7.88566 7.45429 7.91707 7.45307 7.93953C7.45246 7.95076 7.45203 7.95976 7.45173 7.96643C7.45158 7.96976 7.45147 7.97252 7.45139 7.97467C7.45134 7.97575 7.45131 7.97668 7.45128 7.97746C7.45127 7.97785 7.45125 7.9782 7.45124 7.97852C7.45124 7.97868 7.45123 7.97888 7.45123 7.97896C7.45122 7.97916 7.45121 7.97935 8.05086 8Z" fill="#FCF7FC" mask="url(#path-1-inside-1)"/>
</svg>
