<svg width="333" height="340" viewBox="0 0 333 340" fill="none" xmlns="http://www.w3.org/2000/svg">
<ellipse rx="35.5093" ry="35.5195" transform="matrix(0.707111 -0.707103 -0.70711 -0.707103 157.776 191.775)" fill="#3C652F"/>
<path d="M121.109 155.109L122.491 196.84L162.725 156.607L121.109 155.109Z" fill="#3C652F"/>
<path d="M122.242 156.231C141.429 165.824 179.803 191.759 179.803 218.753" stroke="#638A4E" stroke-width="2"/>
<ellipse rx="35.5093" ry="35.5195" transform="matrix(-0.707111 -0.707103 0.70711 -0.707103 270.225 207.775)" fill="#3C652F"/>
<path d="M306.892 171.109L305.51 212.84L265.276 172.607L306.892 171.109Z" fill="#3C652F"/>
<path d="M305.76 172.231C286.573 181.824 248.198 207.759 248.198 234.753" stroke="#638A4E" stroke-width="2"/>
<path d="M248.5 234.5L211.5 271.5" stroke="#638A4E" stroke-width="2" stroke-linecap="round"/>
<path d="M180 218.5L211.5 249.5" stroke="#638A4E" stroke-width="2" stroke-linecap="round"/>
<path d="M211.5 115C211.5 115 211.5 206.5 211.5 283.5C211.5 318.235 191 339 153 339C93.2498 339 2.22316e-06 339 2.22316e-06 339" stroke="#638A4E" stroke-width="2"/>
<path d="M137.634 184.366C155.991 173.095 196.917 142.087 213.767 108.233L137.634 184.366Z" fill="#FCE8F9"/>
<path d="M137.635 184.367C148.906 166.01 179.914 125.084 213.768 108.234L137.635 184.367Z" fill="#FCE8F9"/>
<path d="M214.236 107.765C232.593 96.4933 273.519 65.4862 290.369 31.6322L214.236 107.765Z" fill="#FCE8F9"/>
<path d="M214.236 107.766C225.508 89.4086 256.515 48.4823 290.369 31.6326L214.236 107.766Z" fill="#FCE8F9"/>
<path d="M114.222 149.329C135.495 145.94 185.172 132.955 213.694 108.126L114.222 149.329Z" fill="#FCE8F9"/>
<path d="M114.222 149.329C131.661 136.683 175.969 110.738 213.694 108.126L114.222 149.329Z" fill="#FCE8F9"/>
<path d="M214.306 107.873C235.58 104.484 285.256 91.4987 313.779 66.6697L214.306 107.873Z" fill="#FCE8F9"/>
<path d="M214.307 107.873C231.745 95.227 276.054 69.282 313.779 66.6703L214.307 107.873Z" fill="#FCE8F9"/>
<path d="M106.001 107.999C126.952 113.009 177.816 120.023 213.669 107.999L106.001 107.999Z" fill="#FCE8F9"/>
<path d="M106.001 108C126.952 102.99 177.816 95.9758 213.669 108L106.001 108Z" fill="#FCE8F9"/>
<path d="M214.332 107.999C235.282 113.009 286.147 120.023 322 107.999L214.332 107.999Z" fill="#FCE8F9"/>
<path d="M214.332 108C235.282 102.99 286.147 95.9761 322 108L214.332 108Z" fill="#FCE8F9"/>
<path d="M114.221 66.6695C131.66 79.3156 175.969 105.261 213.694 107.872L114.221 66.6695Z" fill="#FCE8F9"/>
<path d="M114.221 66.6701C135.494 70.059 185.171 83.044 213.694 107.873L114.221 66.6701Z" fill="#FCE8F9"/>
<path d="M214.306 108.126C231.744 120.772 276.053 146.717 313.778 149.329L214.306 108.126Z" fill="#FCE8F9"/>
<path d="M214.306 108.127C235.579 111.516 285.255 124.501 313.778 149.329L214.306 108.127Z" fill="#FCE8F9"/>
<path d="M137.633 31.6322C148.905 49.9891 179.912 90.9154 213.766 107.765L137.633 31.6322Z" fill="#FCE8F9"/>
<path d="M137.633 31.6326C155.99 42.9044 196.916 73.9115 213.766 107.765L137.633 31.6326Z" fill="#FCE8F9"/>
<path d="M214.234 108.234C225.506 126.591 256.513 167.517 290.367 184.367L214.234 108.234Z" fill="#FCE8F9"/>
<path d="M214.234 108.234C232.591 119.506 273.517 150.513 290.367 184.367L214.234 108.234Z" fill="#FCE8F9"/>
<path d="M172.67 8.22121C176.059 29.4943 189.044 79.1711 213.873 107.694L172.67 8.22121Z" fill="#FCE8F9"/>
<path d="M172.669 8.22142C185.315 25.6601 211.26 69.9687 213.872 107.694L172.669 8.22142Z" fill="#FCE8F9"/>
<path d="M214.126 108.306C217.515 129.579 230.5 179.256 255.329 207.778L214.126 108.306Z" fill="#FCE8F9"/>
<path d="M214.126 108.306C226.772 125.745 252.717 170.053 255.328 207.778L214.126 108.306Z" fill="#FCE8F9"/>
<path d="M214 0.000487399C208.99 20.9511 201.976 71.8157 214 107.669L214 0.000487399Z" fill="#FCE8F9"/>
<path d="M213.999 0.000489164C219.009 20.9511 226.023 71.8157 213.999 107.669L213.999 0.000489164Z" fill="#FCE8F9"/>
<path d="M213.999 108.331C208.989 129.282 201.975 180.146 213.999 215.999L213.999 108.331Z" fill="#FCE8F9"/>
<path d="M213.999 108.331C219.009 129.282 226.023 180.146 213.999 215.999L213.999 108.331Z" fill="#FCE8F9"/>
<path d="M255.328 8.22166C242.682 25.6603 216.737 69.9689 214.125 107.694L255.328 8.22166Z" fill="#FCE8F9"/>
<path d="M255.328 8.22142C251.939 29.4945 238.954 79.1714 214.125 107.694L255.328 8.22142Z" fill="#FCE8F9"/>
<path d="M213.872 108.306C201.225 125.745 175.28 170.053 172.669 207.779L213.872 108.306Z" fill="#FCE8F9"/>
<path d="M213.871 108.306C210.482 129.579 197.497 179.256 172.668 207.778L213.871 108.306Z" fill="#FCE8F9"/>
<path d="M290.365 31.6332C272.009 42.905 231.082 73.912 214.233 107.766L290.365 31.6332Z" fill="#FCE8F9"/>
<path d="M290.365 31.6328C279.093 49.9897 248.086 90.9159 214.232 107.766L290.365 31.6328Z" fill="#FCE8F9"/>
<path d="M213.764 108.234C195.407 119.506 154.481 150.513 137.631 184.367L213.764 108.234Z" fill="#FCE8F9"/>
<path d="M213.764 108.234C202.492 126.591 171.485 167.517 137.631 184.367L213.764 108.234Z" fill="#FCE8F9"/>
<path d="M313.776 66.6708C292.503 70.0597 242.826 83.0447 214.304 107.874L313.776 66.6708Z" fill="#FCE8F9"/>
<path d="M313.776 66.6703C296.337 79.3163 252.029 105.261 214.303 107.873L313.776 66.6703Z" fill="#FCE8F9"/>
<path d="M213.691 108.127C192.418 111.516 142.741 124.501 114.219 149.33L213.691 108.127Z" fill="#FCE8F9"/>
<path d="M213.691 108.126C196.253 120.772 151.944 146.717 114.219 149.329L213.691 108.126Z" fill="#FCE8F9"/>
<path d="M321.999 108C301.048 102.99 250.184 95.9766 214.331 108L321.999 108Z" fill="#FCE8F9"/>
<path d="M321.999 108C301.048 113.01 250.184 120.024 214.331 108L321.999 108Z" fill="#FCE8F9"/>
<path d="M213.668 108C192.718 102.99 141.853 95.9763 106 108L213.668 108Z" fill="#FCE8F9"/>
<path d="M213.668 108C192.718 113.009 141.853 120.023 106 108L213.668 108Z" fill="#FCE8F9"/>
<path d="M313.777 149.33C296.338 136.684 252.029 110.739 214.304 108.127L313.777 149.33Z" fill="#FCE8F9"/>
<path d="M313.777 149.329C292.504 145.94 242.827 132.955 214.304 108.126L313.777 149.329Z" fill="#FCE8F9"/>
<path d="M213.692 107.873C196.253 95.2271 151.945 69.282 114.22 66.6703L213.692 107.873Z" fill="#FCE8F9"/>
<path d="M213.692 107.873C192.419 104.484 142.742 91.4987 114.22 66.6698L213.692 107.873Z" fill="#FCE8F9"/>
<path d="M290.365 184.367C279.093 166.01 248.086 125.084 214.232 108.234L290.365 184.367Z" fill="#FCE8F9"/>
<path d="M290.365 184.367C272.008 173.095 231.082 142.088 214.232 108.234L290.365 184.367Z" fill="#FCE8F9"/>
<path d="M213.764 107.765C202.492 89.4086 171.485 48.4823 137.631 31.6326L213.764 107.765Z" fill="#FCE8F9"/>
<path d="M213.764 107.765C195.407 96.4933 154.481 65.4862 137.631 31.6322L213.764 107.765Z" fill="#FCE8F9"/>
<path d="M255.326 207.778C251.937 186.505 238.952 136.828 214.123 108.306L255.326 207.778Z" fill="#FCE8F9"/>
<path d="M255.326 207.778C242.68 190.339 216.735 146.031 214.124 108.306L255.326 207.778Z" fill="#FCE8F9"/>
<path d="M213.87 107.694C210.481 86.4206 197.496 36.7437 172.667 8.22126L213.87 107.694Z" fill="#FCE8F9"/>
<path d="M213.87 107.693C201.224 90.2548 175.279 45.9462 172.667 8.22102L213.87 107.693Z" fill="#FCE8F9"/>
<path d="M213.996 215.999C219.006 195.048 226.02 144.184 213.996 108.331L213.996 215.999Z" fill="#FCE8F9"/>
<path d="M213.997 215.999C208.987 195.048 201.973 144.184 213.997 108.331L213.997 215.999Z" fill="#FCE8F9"/>
<path d="M213.997 107.668C219.006 86.7175 226.02 35.853 213.996 1.57758e-05L213.997 107.668Z" fill="#FCE8F9"/>
<path d="M213.997 107.668C208.987 86.7175 201.973 35.853 213.997 -5.17026e-07L213.997 107.668Z" fill="#FCE8F9"/>
<path d="M172.672 207.778C185.318 190.339 211.263 146.031 213.874 108.305L172.672 207.778Z" fill="#FCE8F9"/>
<path d="M172.672 207.778C176.061 186.505 189.046 136.828 213.875 108.306L172.672 207.778Z" fill="#FCE8F9"/>
<path d="M214.128 107.693C226.774 90.2547 252.719 45.9461 255.331 8.22098L214.128 107.693Z" fill="#FCE8F9"/>
<path d="M214.129 107.694C217.518 86.4205 230.503 36.7437 255.332 8.22118L214.129 107.694Z" fill="#FCE8F9"/>
<path d="M212.23 90.3473C212.41 88.1746 215.59 88.1746 215.77 90.3473C215.918 92.1263 218.303 92.6007 219.12 91.0136C220.118 89.0752 223.056 90.2922 222.391 92.3685C221.846 94.0685 223.868 95.4195 225.231 94.2659C226.894 92.8569 229.143 95.1057 227.734 96.7694C226.581 98.1317 227.932 100.154 229.632 99.6091C231.708 98.9441 232.925 101.882 230.986 102.88C229.399 103.697 229.874 106.082 231.653 106.23C233.825 106.41 233.825 109.59 231.653 109.77C229.874 109.918 229.399 112.303 230.986 113.12C232.925 114.118 231.708 117.056 229.632 116.391C227.932 115.846 226.581 117.868 227.734 119.231C229.143 120.894 226.894 123.143 225.231 121.734C223.868 120.581 221.846 121.932 222.391 123.632C223.056 125.708 220.118 126.925 219.12 124.986C218.303 123.399 215.918 123.874 215.77 125.653C215.59 127.825 212.41 127.825 212.23 125.653C212.082 123.874 209.697 123.399 208.88 124.986C207.882 126.925 204.944 125.708 205.609 123.632C206.154 121.932 204.132 120.581 202.769 121.734C201.106 123.143 198.857 120.894 200.266 119.231C201.419 117.868 200.068 115.846 198.368 116.391C196.292 117.056 195.075 114.118 197.014 113.12C198.601 112.303 198.126 109.918 196.347 109.77C194.175 109.59 194.175 106.41 196.347 106.23C198.126 106.082 198.601 103.697 197.014 102.88C195.075 101.882 196.292 98.9441 198.368 99.6091C200.068 100.154 201.419 98.1317 200.266 96.7694C198.857 95.1057 201.106 92.8569 202.769 94.2659C204.132 95.4195 206.154 94.0685 205.609 92.3685C204.944 90.2922 207.882 89.0752 208.88 91.0136C209.697 92.6007 212.082 92.1263 212.23 90.3473Z" fill="#F4B542" stroke="#638A4E" stroke-width="2"/>
</svg>
