<svg width="84" height="84" viewBox="0 0 84 84" fill="none" xmlns="http://www.w3.org/2000/svg">
<path d="M2 12C2 9.34786 3.05357 6.80431 4.92894 4.92894C6.80431 3.05357 9.34786 2 12 2H62.0002C63.3263 2 64.598 2.52679 65.5357 3.46447C66.4734 4.40216 67.0002 5.67393 67.0002 7.00001V22.0001C79.5 22.0001 77.0002 27.0001 77.0002 42.0001V27.0001C77.0002 25.674 76.4734 24.4022 75.5358 23.4645C74.5981 22.5268 73.3263 22.0001 72.0002 22.0001H12C9.34786 22.0001 6.80431 20.9465 4.92894 19.0711C3.05357 17.1957 2 14.6522 2 12ZM2 12V72.0002C2 74.6524 3.05357 77.1959 4.92894 79.0713C6.80431 80.9467 9.34786 82.0002 12 82.0002H72.0002C73.3263 82.0002 74.5981 81.4734 75.5358 80.5358C76.4734 79.5981 77.0002 78.3263 77.0002 77.0002V62.0002" stroke="#3D293A" stroke-width="2.75" stroke-linecap="round" stroke-linejoin="round"/>
<path d="M82 41.9999V61.9999H62C59.3478 61.9999 56.8043 60.9464 54.9289 59.071C53.0535 57.1956 51.9999 54.6521 51.9999 51.9999C51.9999 49.3477 53.0535 46.8042 54.9289 44.9288C56.8043 43.0535 59.3478 41.9999 62 41.9999H82Z" stroke="#3D293A" stroke-width="2.75" stroke-linecap="round" stroke-linejoin="round"/>
</svg>
