<svg width="44" height="44" viewBox="0 0 44 44" fill="none" xmlns="http://www.w3.org/2000/svg">
<path d="M2 41.9625L5.6651 33.518C2.8611 29.5359 1.6061 24.667 2.1356 19.8249C2.6651 14.9829 4.94271 10.5006 8.541 7.21921C12.1393 3.93783 16.8109 2.08297 21.6791 2.00272C26.5473 1.92246 31.2775 3.62233 34.9819 6.78332C38.6863 9.94431 41.1103 14.3491 41.799 19.1711C42.4876 23.9931 41.3937 28.9007 38.7223 32.9731C36.051 37.0454 31.986 40.0025 27.2901 41.2894C22.5942 42.5762 17.5903 42.1044 13.2174 39.9625L2 41.9625" stroke="#3D293A" stroke-width="3.33191" stroke-linecap="round" stroke-linejoin="round"/>
<path d="M15.3276 17.5179C15.3276 17.8126 15.4446 18.0952 15.6529 18.3036C15.8612 18.5119 16.1437 18.629 16.4383 18.629C16.7328 18.629 17.0153 18.5119 17.2236 18.3036C17.4319 18.0952 17.5489 17.8126 17.5489 17.5179V15.2957C17.5489 15.001 17.4319 14.7184 17.2236 14.51C17.0153 14.3016 16.7328 14.1846 16.4383 14.1846C16.1437 14.1846 15.8612 14.3016 15.6529 14.51C15.4446 14.7184 15.3276 15.001 15.3276 15.2957V17.5179ZM15.3276 17.5179C15.3276 20.4647 16.4978 23.2909 18.5806 25.3746C20.6635 27.4584 23.4884 28.629 26.434 28.629H28.6553C28.9498 28.629 29.2323 28.5119 29.4406 28.3036C29.6489 28.0952 29.7659 27.8126 29.7659 27.5179C29.7659 27.2232 29.6489 26.9406 29.4406 26.7322C29.2323 26.5238 28.9498 26.4068 28.6553 26.4068H26.434C26.1394 26.4068 25.857 26.5238 25.6487 26.7322C25.4404 26.9406 25.3234 27.2232 25.3234 27.5179C25.3234 27.8126 25.4404 28.0952 25.6487 28.3036C25.857 28.5119 26.1394 28.629 26.434 28.629" stroke="#3D293A" stroke-width="3.33191" stroke-linecap="round" stroke-linejoin="round"/>
</svg>
